Coordinates
version=1
nRows=10
nColumns=40
inDegrees=yes

Units are S.I. units (second, meters, Newtons, ...)
Angles are in degrees.

endheader
time	pelvis_tilt	pelvis_list	pelvis_rotation	pelvis_tx	pelvis_ty	pelvis_tz	hip_flexion_r	hip_adduction_r	hip_rotation_r	knee_angle_r	knee_angle_r_beta	ankle_angle_r	subtalar_angle_r	mtp_angle_r	hip_flexion_l	hip_adduction_l	hip_rotation_l	knee_angle_l	knee_angle_l_beta	ankle_angle_l	subtalar_angle_l	mtp_angle_l	lumbar_extension	lumbar_bending	lumbar_rotation	arm_flex_r	arm_add_r	arm_rot_r	elbow_flex_r	pro_sup_r	wrist_flex_r	wrist_dev_r	arm_flex_l	arm_add_l	arm_rot_l	elbow_flex_l	pro_sup_l	wrist_flex_l	wrist_dev_l
     54.72000000	     -2.13869097	     -3.79671977	      6.27868085	      1.06922329	      0.93156505	      0.50790043	      9.41691331	      1.29982973	    -12.63063332	     17.70091159	     17.70091159	     11.56980073	     -5.57085114	     -5.74327499	     31.66177366	    -10.42405094	      2.40067497	     50.28078763	     50.28078763	     13.60360355	    -19.01188415	     15.92532681	    -10.04118504	      5.22709850	      1.94134229	     22.55956994	    -18.36142454	     -1.39860151	     61.13287766	     45.17302724	      0.00000000	      0.00000000	      2.10791152	     -8.62644269	     -2.07629785	     28.23784277	     46.42283750	      0.00000000	      0.00000000
     54.73257143	     -2.25802641	     -3.64499708	      6.64466288	      1.06866958	      0.93168227	      0.50762585	      9.04914729	      1.18873115	    -12.73738714	     17.43180520	     17.43180520	     11.76286869	     -5.74352007	     -5.70930328	     32.29945259	     -9.70495765	      2.70312332	     48.01933133	     48.01933133	     13.62779797	    -18.93376186	     16.04965177	    -10.05596586	      4.95807052	      1.71149788	     24.31275455	    -18.23604606	     -1.56812421	     63.18226536	     45.11975646	      0.00000000	      0.00000000	      1.08526585	     -8.63612133	     -2.10081090	     26.95124277	     46.40990807	      0.00000000	      0.00000000
     54.74514286	     -2.37929571	     -3.56539155	      7.00919446	      1.06809896	      0.93166376	      0.50718689	      8.69784095	      1.13155400	    -12.93150985	     17.17845445	     17.17845445	     11.94545345	     -5.81769014	     -5.68551902	     32.87644734	     -8.98637536	      3.15570029	     45.76263265	     45.76263265	     13.60462312	    -18.82080827	     15.85350615	    -10.11645982	      4.87163879	      1.36957798	     25.86363730	    -18.10322543	     -1.61386426	     66.28994056	     45.02789260	      0.00000000	      0.00000000	      0.21360908	     -8.58783734	     -2.14777560	     25.16148061	     46.40768161	      0.00000000	      0.00000000
     54.75771429	     -2.53255137	     -3.42354137	      7.31090255	      1.06755453	      0.93166129	      0.50668228	      8.37131893	      1.00129104	    -13.06509389	     16.92995633	     16.92995633	     12.15696727	     -5.85570437	     -5.67085429	     33.35947484	     -8.18337762	      3.62951378	     43.48165558	     43.48165558	     13.46848101	    -18.64808634	     15.69344721	    -10.10542566	      4.65325619	      1.38105137	     27.31365277	    -18.14464409	     -1.72474856	     68.78408853	     44.95883250	      0.00000000	      0.00000000	     -0.58606634	     -8.55628733	     -2.17893063	     23.93077317	     46.40447941	      0.00000000	      0.00000000
     54.77028571	     -2.71163110	     -3.41008403	      7.55246211	      1.06704897	      0.93142583	      0.50615346	      8.10853275	      0.97008720	    -13.34513974	     16.72729272	     16.72729272	     12.43017258	     -5.62417309	     -5.63528025	     33.80735750	     -7.55864331	      4.11646370	     41.24739846	     41.24739846	     12.89854759	    -18.38137995	     13.96450336	    -10.20344701	      4.59016383	      2.30375993	     27.39859797	    -19.22579559	     -2.11519669	     73.97789465	     44.82763765	      0.00000000	      0.00000000	     -0.46674672	     -8.30078819	     -2.37444355	     21.77806051	     46.46271051	      0.00000000	      0.00000000
     54.78285714	     -2.85371266	     -3.32559062	      7.77072876	      1.06668874	      0.93129274	      0.50547876	      7.76459354	      0.89528837	    -13.44710124	     16.47086382	     16.47086382	     12.64291535	     -5.62248764	     -5.61671565	     34.13282242	     -6.82735186	      4.70517780	     39.17584828	     39.17584828	     12.90624071	    -18.00148676	     13.85767653	    -10.19419275	      4.43814669	      2.07209433	     29.08257658	    -18.76774255	     -2.40940260	     75.91879164	     44.78699055	      0.00000000	      0.00000000	     -1.45596203	     -8.34365120	     -2.38075563	     21.03777654	     46.44809846	      0.00000000	      0.00000000
     54.79542857	     -3.00915002	     -3.28956536	      7.94768837	      1.06644623	      0.93106480	      0.50476792	      7.42456332	      0.85649742	    -13.62375427	     16.20222334	     16.20222334	     12.87882320	     -5.45693550	     -5.62220432	     34.41223283	     -6.21414660	      5.21633481	     37.24321351	     37.24321351	     12.91469106	    -17.44635453	     13.51161053	    -10.20006081	      4.34253128	      1.92674770	     30.57117346	    -18.41652485	     -2.55899024	     78.28212330	     44.72791203	      0.00000000	      0.00000000	     -2.42055429	     -8.36628470	     -2.39912700	     20.47802748	     46.43490779	      0.00000000	      0.00000000
     54.80800000	     -3.24766773	     -3.38554910	      8.07147084	      1.06628047	      0.93058926	      0.50405731	      7.25056868	      0.94207356	    -13.72042079	     16.04034259	     16.04034259	     13.07368655	     -5.38957172	     -5.65812441	     34.78990384	     -5.78753531	      5.70412759	     35.55984197	     35.55984197	     13.06045616	    -16.67207032	     13.43233407	     -9.97488711	      4.34249196	      2.24151894	     32.04384864	    -18.54620374	     -2.75099416	     79.52821256	     44.70235234	      0.00000000	      0.00000000	     -3.17054364	     -8.33867076	     -2.41821501	     20.18760106	     46.42378328	      0.00000000	      0.00000000
     54.82057143	     -3.27675015	     -3.27658318	      8.15949748	      1.06656009	      0.93049087	      0.50319693	      6.65510067	      0.85025104	    -13.87300073	     15.62718613	     15.62718613	     13.33643146	     -5.01707912	     -5.64642779	     34.69003071	     -5.27603462	      5.89956484	     33.85291005	     33.85291005	     13.16653227	    -15.94935796	     12.96445061	    -10.17158745	      4.18789545	      1.88448602	     33.25450053	    -17.76831561	     -2.64672765	     82.62461346	     44.60998476	      0.00000000	      0.00000000	     -4.22348321	     -8.38323192	     -2.44826802	     19.88372070	     46.40718240	      0.00000000	      0.00000000
     54.83314286	     -3.39294393	     -3.40998645	      8.19328887	      1.06698513	      0.92997494	      0.50235724	      6.25078466	      0.96762124	    -14.15261731	     15.36429193	     15.36429193	     13.70114989	     -4.41280100	     -5.58207651	     34.67747843	     -5.05803936	      6.07570570	     32.31413292	     32.31413292	     12.69348835	    -15.41529785	     11.12498243	    -10.21689730	      4.29197406	      2.70707583	     33.35775043	    -18.37666409	     -3.04301573	     87.06629414	     44.52465920	      0.00000000	      0.00000000	     -4.98365345	     -8.45895936	     -2.51464146	     20.61152469	     46.38800750	      0.00000000	      0.00000000
